<?xml version="1.0" standalone="no"?>
<!DOCTYPE svg PUBLIC "-//W3C//DTD SVG 20010904//EN"
 "http://www.w3.org/TR/2001/REC-SVG-20010904/DTD/svg10.dtd">
<svg version="1.0" xmlns="http://www.w3.org/2000/svg"
 width="16.000000pt" height="16.000000pt" viewBox="0 0 16.000000 16.000000"
 preserveAspectRatio="xMidYMid meet">
<metadata>
Created by potrace 1.11, written by Peter Selinger 2001-2013
</metadata>
<g transform="translate(0.000000,16.000000) scale(0.002286,-0.002286)"
fill="#000000" stroke="none">
<path d="M2347 5813 c-4 -3 -7 -264 -7 -580 l0 -573 -577 -2 -578 -3 -3 -577
-2 -578 580 0 580 0 0 -580 0 -580 -580 0 -580 0 2 -577 3 -578 578 -3 577 -2
0 580 0 580 580 0 580 0 0 -580 0 -580 578 2 577 3 3 577 2 578 578 2 577 3 3
578 2 577 -580 0 -580 0 0 580 0 580 580 0 580 0 -2 578 -3 577 -577 3 -578 2
0 -580 0 -580 -580 0 -580 0 0 580 0 580 -573 0 c-316 0 -577 -3 -580 -7z
m1153 -1733 l0 -580 580 0 580 0 0 -580 0 -580 -580 0 -580 0 0 580 0 580
-580 0 -580 0 0 580 0 580 580 0 580 0 0 -580z m707 328 c81 -30 171 -121 202
-203 31 -82 27 -196 -10 -275 -104 -221 -397 -272 -569 -100 -179 179 -118
479 118 576 76 32 179 32 259 2z m-1177 -1150 c122 -37 222 -156 239 -283 29
-215 -119 -394 -334 -403 -113 -5 -180 21 -261 102 -81 81 -107 148 -102 261
3 60 10 94 29 135 74 159 258 239 429 188z"/>
</g>
</svg>
