<?xml version="1.0" encoding="UTF-8" standalone="no"?>
<!DOCTYPE svg PUBLIC "-//W3C//DTD SVG 1.1//EN" "http://www.w3.org/Graphics/SVG/1.1/DTD/svg11.dtd">
<svg width="100%" height="100%" viewBox="0 0 480 546" version="1.1" xmlns="http://www.w3.org/2000/svg" xmlns:xlink="http://www.w3.org/1999/xlink" xml:space="preserve" style="fill-rule:evenodd;clip-rule:evenodd;stroke-linecap:round;">
    <g transform="matrix(1,0,0,1,-1960,-3144)">
        <g id="chessboard3">
            <g transform="matrix(3.59167,0,0,3.59167,-8453.34,-2496.37)">
                <rect x="2899.3" y="1588.78" width="133.642" height="133.642" style="fill:url(#_Linear1);"/>
            </g>
            <g transform="matrix(2.38584,0,0,2.38584,-5063.5,-597.782)">
                <rect x="2943.82" y="1621.14" width="25.148" height="25.148"/>
            </g>
            <g transform="matrix(2.38584,0,0,2.38584,-5003.5,-537.782)">
                <rect x="2943.82" y="1621.14" width="25.148" height="25.148"/>
            </g>
            <g transform="matrix(2.38584,0,0,2.38584,-4943.5,-597.782)">
                <rect x="2943.82" y="1621.14" width="25.148" height="25.148"/>
            </g>
            <g transform="matrix(2.38584,0,0,2.38584,-5063.5,-477.782)">
                <rect x="2943.82" y="1621.14" width="25.148" height="25.148"/>
            </g>
            <g transform="matrix(2.38584,0,0,2.38584,-4943.5,-477.782)">
                <rect x="2943.82" y="1621.14" width="25.148" height="25.148"/>
            </g>
            <g transform="matrix(2.38584,0,0,2.38584,-4883.5,-537.782)">
                <rect x="2943.82" y="1621.14" width="25.148" height="25.148"/>
            </g>
            <g transform="matrix(2.38584,0,0,2.38584,-4823.5,-597.782)">
                <rect x="2943.82" y="1621.14" width="25.148" height="25.148"/>
            </g>
            <g transform="matrix(2.38584,0,0,2.38584,-4763.5,-537.782)">
                <rect x="2943.82" y="1621.14" width="25.148" height="25.148"/>
            </g>
            <g transform="matrix(2.38584,0,0,2.38584,-4703.5,-597.782)">
                <rect x="2943.82" y="1621.14" width="25.148" height="25.148"/>
            </g>
            <g transform="matrix(2.38584,0,0,2.38584,-4643.5,-537.782)">
                <rect x="2943.82" y="1621.14" width="25.148" height="25.148"/>
            </g>
            <g transform="matrix(2.38584,0,0,2.38584,-4823.5,-477.782)">
                <rect x="2943.82" y="1621.14" width="25.148" height="25.148"/>
            </g>
            <g transform="matrix(2.38584,0,0,2.38584,-4703.5,-477.782)">
                <rect x="2943.82" y="1621.14" width="25.148" height="25.148"/>
            </g>
            <g transform="matrix(2.38584,0,0,2.38584,-5003.5,-417.782)">
                <rect x="2943.82" y="1621.14" width="25.148" height="25.148"/>
            </g>
            <g transform="matrix(2.38584,0,0,2.38584,-5063.5,-357.782)">
                <rect x="2943.82" y="1621.14" width="25.148" height="25.148"/>
            </g>
            <g transform="matrix(2.38584,0,0,2.38584,-4943.5,-357.782)">
                <rect x="2943.82" y="1621.14" width="25.148" height="25.148"/>
            </g>
            <g transform="matrix(2.38584,0,0,2.38584,-4883.5,-417.782)">
                <rect x="2943.82" y="1621.14" width="25.148" height="25.148"/>
            </g>
            <g transform="matrix(2.38584,0,0,2.38584,-4763.5,-417.782)">
                <rect x="2943.82" y="1621.14" width="25.148" height="25.148"/>
            </g>
            <g transform="matrix(2.38584,0,0,2.38584,-4643.5,-417.782)">
                <rect x="2943.82" y="1621.14" width="25.148" height="25.148"/>
            </g>
            <g transform="matrix(2.38584,0,0,2.38584,-4823.5,-357.782)">
                <rect x="2943.82" y="1621.14" width="25.148" height="25.148"/>
            </g>
            <g transform="matrix(2.38584,0,0,2.38584,-4703.5,-357.782)">
                <rect x="2943.82" y="1621.14" width="25.148" height="25.148"/>
            </g>
            <g transform="matrix(2.38584,0,0,2.38584,-5003.5,-297.782)">
                <rect x="2943.82" y="1621.14" width="25.148" height="25.148"/>
            </g>
            <g transform="matrix(2.38584,0,0,2.38584,-5063.5,-237.782)">
                <rect x="2943.82" y="1621.14" width="25.148" height="25.148"/>
            </g>
            <g transform="matrix(2.38584,0,0,2.38584,-4943.5,-237.782)">
                <rect x="2943.82" y="1621.14" width="25.148" height="25.148"/>
            </g>
            <g transform="matrix(2.38584,0,0,2.38584,-4883.5,-297.782)">
                <rect x="2943.82" y="1621.14" width="25.148" height="25.148"/>
            </g>
            <g transform="matrix(2.38584,0,0,2.38584,-4763.5,-297.782)">
                <rect x="2943.82" y="1621.14" width="25.148" height="25.148"/>
            </g>
            <g transform="matrix(2.38584,0,0,2.38584,-4643.5,-297.782)">
                <rect x="2943.82" y="1621.14" width="25.148" height="25.148"/>
            </g>
            <g transform="matrix(2.38584,0,0,2.38584,-4823.5,-237.782)">
                <rect x="2943.82" y="1621.14" width="25.148" height="25.148"/>
            </g>
            <g transform="matrix(2.38584,0,0,2.38584,-4703.5,-237.782)">
                <rect x="2943.82" y="1621.14" width="25.148" height="25.148"/>
            </g>
            <g transform="matrix(2.38584,0,0,2.38584,-5003.5,-657.782)">
                <rect x="2943.82" y="1621.14" width="25.148" height="25.148"/>
            </g>
            <g transform="matrix(2.38584,0,0,2.38584,-4883.5,-657.782)">
                <rect x="2943.82" y="1621.14" width="25.148" height="25.148"/>
            </g>
            <g transform="matrix(2.38584,0,0,2.38584,-4763.5,-657.782)">
                <rect x="2943.82" y="1621.14" width="25.148" height="25.148"/>
            </g>
            <g transform="matrix(2.38584,0,0,2.38584,-4643.5,-657.782)">
                <rect x="2943.82" y="1621.14" width="25.148" height="25.148"/>
            </g>
            <g transform="matrix(0.75,0,0,0.75,2110,3300)">
                <g transform="matrix(1,0,0,1,-40,-40)">
                    <g transform="matrix(2,0,0,2,-4,-6)">
                        <path d="M22,9C19.79,9 18,10.79 18,13C18,13.89 18.29,14.71 18.78,15.38C16.83,16.5 15.5,18.59 15.5,21C15.5,23.03 16.44,24.84 17.91,26.03C14.91,27.09 10.5,31.58 10.5,39.5L33.5,39.5C33.5,31.58 29.09,27.09 26.09,26.03C27.56,24.84 28.5,23.03 28.5,21C28.5,18.59 27.17,16.5 25.22,15.38C25.71,14.71 26,13.89 26,13C26,10.79 24.21,9 22,9Z" style="fill:rgb(253,115,55);fill-rule:nonzero;stroke:rgb(253,115,55);stroke-width:1.5px;"/>
                    </g>
                </g>
            </g>
            <g transform="matrix(0.75,0,0,0.75,2110,3600)">
                <g transform="matrix(1,0,0,1,-40,-40)">
                    <clipPath id="_clip2">
                        <rect x="0" y="0" width="80" height="80"/>
                    </clipPath>
                    <g clip-path="url(#_clip2)">
                        <g transform="matrix(2,0,0,2,-5,-6)">
                            <g>
                                <path d="M22.5,11.63L22.5,6" style="fill:rgb(253,115,55);stroke:rgb(253,115,55);stroke-width:1.5px;"/>
                                <path d="M22.5,25C22.5,25 27,17.5 25.5,14.5C25.5,14.5 24.5,12 22.5,12C20.5,12 19.5,14.5 19.5,14.5C18,17.5 22.5,25 22.5,25" style="fill:rgb(253,115,55);stroke:rgb(253,115,55);stroke-width:1.5px;stroke-linecap:butt;"/>
                                <path d="M11.5,37C17,40.5 27,40.5 32.5,37L32.5,30C32.5,30 41.5,25.5 38.5,19.5C34.5,13 25,16 22.5,23.5L22.5,27L22.5,23.5C19,16 9.5,13 6.5,19.5C3.5,25.5 11.5,29.5 11.5,29.5L11.5,37Z" style="fill:rgb(253,115,55);stroke:rgb(253,115,55);stroke-width:1.5px;stroke-linejoin:round;"/>
                                <path d="M20,8L25,8" style="fill:rgb(253,115,55);stroke:rgb(253,115,55);stroke-width:1.5px;"/>
                            </g>
                            <path d="M32,29.5C32,29.5 40.5,25.5 38.03,19.85C34.15,14 25,18 22.5,24.5L22.51,26.6L22.5,24.5C20,18 9.906,14 6.997,19.85C4.5,25.5 11.85,28.85 11.85,28.85" style="fill:none;stroke:white;stroke-width:1.5px;stroke-linejoin:round;"/>
                            <path d="M11.5,30C17,27 27,27 32.5,30M11.5,33.5C17,30.5 27,30.5 32.5,33.5M11.5,37C17,34 27,34 32.5,37" style="fill:none;stroke:white;stroke-width:1.5px;stroke-linejoin:round;"/>
                        </g>
                    </g>
                </g>
            </g>
            <g transform="matrix(0.75,0,0,0.75,2170,3480)">
                <g transform="matrix(1,0,0,1,-40,-40)">
                    <g transform="matrix(2,0,0,2,-5,-6)">
                        <g>
                            <rect x="9" y="36" width="27" height="3" style="fill:rgb(107,203,73);stroke:rgb(107,203,73);stroke-width:1.5px;stroke-linecap:butt;stroke-linejoin:round;"/>
                            <path d="M12.5,32L14,29.5L31,29.5L32.5,32L12.5,32Z" style="fill:rgb(107,203,73);stroke:rgb(107,203,73);stroke-width:1.5px;stroke-linecap:butt;stroke-linejoin:round;"/>
                            <rect x="12" y="32" width="21" height="4" style="fill:rgb(107,203,73);stroke:rgb(107,203,73);stroke-width:1.5px;stroke-linecap:butt;stroke-linejoin:round;"/>
                            <rect x="14" y="16.5" width="17" height="13" style="fill:rgb(107,203,73);stroke:rgb(107,203,73);stroke-width:1.5px;stroke-linecap:butt;"/>
                            <path d="M14,16.5L11,14L34,14L31,16.5L14,16.5Z" style="fill:rgb(107,203,73);stroke:rgb(107,203,73);stroke-width:1.5px;stroke-linecap:butt;stroke-linejoin:round;"/>
                            <path d="M11,14L11,9L15,9L15,11L20,11L20,9L25,9L25,11L30,11L30,9L34,9L34,14L11,14Z" style="fill:rgb(107,203,73);stroke:rgb(107,203,73);stroke-width:1.5px;stroke-linecap:butt;stroke-linejoin:round;"/>
                        </g>
                        <g>
                            <path d="M12,35.5L33,35.5" style="stroke:black;stroke-width:1px;"/>
                            <path d="M13,31.5L32,31.5" style="stroke:black;stroke-width:1px;"/>
                            <path d="M14,29.5L31,29.5" style="stroke:black;stroke-width:1px;"/>
                            <path d="M14,16.5L31,16.5" style="stroke:black;stroke-width:1px;"/>
                            <path d="M11,14L34,14" style="stroke:black;stroke-width:1px;"/>
                        </g>
                    </g>
                </g>
            </g>
            <g transform="matrix(0.75,0,0,0.75,1990,3660)">
                <g transform="matrix(1,0,0,1,-40,-40)">
                    <clipPath id="_clip3">
                        <rect x="0" y="0" width="80" height="80"/>
                    </clipPath>
                    <g clip-path="url(#_clip3)">
                        <g transform="matrix(2,0,0,2,-5,-6)">
                            <g>
                                <path d="M22.5,11.63L22.5,6" style="fill:rgb(107,203,73);stroke:rgb(107,203,73);stroke-width:1.5px;"/>
                                <path d="M22.5,25C22.5,25 27,17.5 25.5,14.5C25.5,14.5 24.5,12 22.5,12C20.5,12 19.5,14.5 19.5,14.5C18,17.5 22.5,25 22.5,25" style="fill:rgb(107,203,73);stroke:rgb(107,203,73);stroke-width:1.5px;stroke-linecap:butt;"/>
                                <path d="M11.5,37C17,40.5 27,40.5 32.5,37L32.5,30C32.5,30 41.5,25.5 38.5,19.5C34.5,13 25,16 22.5,23.5L22.5,27L22.5,23.5C19,16 9.5,13 6.5,19.5C3.5,25.5 11.5,29.5 11.5,29.5L11.5,37Z" style="fill:rgb(107,203,73);stroke:rgb(107,203,73);stroke-width:1.5px;stroke-linejoin:round;"/>
                                <path d="M20,8L25,8" style="fill:rgb(107,203,73);stroke:rgb(107,203,73);stroke-width:1.5px;"/>
                            </g>
                            <path d="M32,29.5C32,29.5 40.5,25.5 38.03,19.85C34.15,14 25,18 22.5,24.5L22.51,26.6L22.5,24.5C20,18 9.906,14 6.997,19.85C4.5,25.5 11.85,28.85 11.85,28.85" style="fill:none;stroke:black;stroke-width:1.5px;stroke-linejoin:round;"/>
                            <path d="M11.5,30C17,27 27,27 32.5,30M11.5,33.5C17,30.5 27,30.5 32.5,33.5M11.5,37C17,34 27,34 32.5,37" style="fill:none;stroke:black;stroke-width:1.5px;stroke-linejoin:round;"/>
                        </g>
                    </g>
                </g>
            </g>
        </g>
    </g>
    <defs>
        <linearGradient id="_Linear1" x1="0" y1="0" x2="1" y2="0" gradientUnits="userSpaceOnUse" gradientTransform="matrix(133.642,0,0,133.642,2899.3,1655.6)"><stop offset="0%" style="stop-color:white;stop-opacity:1"/><stop offset="100%" style="stop-color:white;stop-opacity:1"/></linearGradient>
    </defs>
</svg>
