<?xml version="1.0" encoding="UTF-8" standalone="no"?>
<!DOCTYPE svg PUBLIC "-//W3C//DTD SVG 1.1//EN" "http://www.w3.org/Graphics/SVG/1.1/DTD/svg11.dtd">
<svg width="100%" height="100%" viewBox="0 0 480 480" version="1.1" xmlns="http://www.w3.org/2000/svg" xmlns:xlink="http://www.w3.org/1999/xlink" xml:space="preserve" style="fill-rule:evenodd;clip-rule:evenodd;stroke-linecap:round;stroke-linejoin:round;">
    <g transform="matrix(1,0,0,1,-3200,-3000)">
        <g id="chessboard4">
            <g transform="matrix(3.59167,0,0,3.59167,-7213.34,-2706.37)">
                <rect x="2899.3" y="1588.78" width="133.642" height="133.642" style="fill:url(#_Linear1);"/>
            </g>
            <g transform="matrix(2.38584,0,0,2.38584,-3823.5,-807.782)">
                <rect x="2943.82" y="1621.14" width="25.148" height="25.148"/>
            </g>
            <g transform="matrix(2.38584,0,0,2.38584,-3763.5,-747.782)">
                <rect x="2943.82" y="1621.14" width="25.148" height="25.148"/>
            </g>
            <g transform="matrix(2.38584,0,0,2.38584,-3703.5,-807.782)">
                <rect x="2943.82" y="1621.14" width="25.148" height="25.148"/>
            </g>
            <g transform="matrix(2.38584,0,0,2.38584,-3823.5,-687.782)">
                <rect x="2943.82" y="1621.14" width="25.148" height="25.148"/>
            </g>
            <g transform="matrix(2.38584,0,0,2.38584,-3703.5,-687.782)">
                <rect x="2943.82" y="1621.14" width="25.148" height="25.148"/>
            </g>
            <g transform="matrix(2.38584,0,0,2.38584,-3643.5,-747.782)">
                <rect x="2943.82" y="1621.14" width="25.148" height="25.148"/>
            </g>
            <g transform="matrix(2.38584,0,0,2.38584,-3583.5,-807.782)">
                <rect x="2943.82" y="1621.14" width="25.148" height="25.148"/>
            </g>
            <g transform="matrix(2.38584,0,0,2.38584,-3523.5,-747.782)">
                <rect x="2943.82" y="1621.14" width="25.148" height="25.148"/>
            </g>
            <g transform="matrix(2.38584,0,0,2.38584,-3463.5,-807.782)">
                <rect x="2943.82" y="1621.14" width="25.148" height="25.148"/>
            </g>
            <g transform="matrix(2.38584,0,0,2.38584,-3403.5,-747.782)">
                <rect x="2943.82" y="1621.14" width="25.148" height="25.148"/>
            </g>
            <g transform="matrix(2.38584,0,0,2.38584,-3583.5,-687.782)">
                <rect x="2943.82" y="1621.14" width="25.148" height="25.148"/>
            </g>
            <g transform="matrix(2.38584,0,0,2.38584,-3463.5,-687.782)">
                <rect x="2943.82" y="1621.14" width="25.148" height="25.148"/>
            </g>
            <g transform="matrix(2.38584,0,0,2.38584,-3763.5,-627.782)">
                <rect x="2943.82" y="1621.14" width="25.148" height="25.148"/>
            </g>
            <g transform="matrix(2.38584,0,0,2.38584,-3823.5,-567.782)">
                <rect x="2943.82" y="1621.14" width="25.148" height="25.148"/>
            </g>
            <g transform="matrix(2.38584,0,0,2.38584,-3703.5,-567.782)">
                <rect x="2943.82" y="1621.14" width="25.148" height="25.148"/>
            </g>
            <g transform="matrix(2.38584,0,0,2.38584,-3643.5,-627.782)">
                <rect x="2943.82" y="1621.14" width="25.148" height="25.148"/>
            </g>
            <g transform="matrix(2.38584,0,0,2.38584,-3523.5,-627.782)">
                <rect x="2943.82" y="1621.14" width="25.148" height="25.148"/>
            </g>
            <g transform="matrix(2.38584,0,0,2.38584,-3403.5,-627.782)">
                <rect x="2943.82" y="1621.14" width="25.148" height="25.148"/>
            </g>
            <g transform="matrix(2.38584,0,0,2.38584,-3583.5,-567.782)">
                <rect x="2943.82" y="1621.14" width="25.148" height="25.148"/>
            </g>
            <g transform="matrix(2.38584,0,0,2.38584,-3463.5,-567.782)">
                <rect x="2943.82" y="1621.14" width="25.148" height="25.148"/>
            </g>
            <g transform="matrix(2.38584,0,0,2.38584,-3763.5,-507.782)">
                <rect x="2943.82" y="1621.14" width="25.148" height="25.148"/>
            </g>
            <g transform="matrix(2.38584,0,0,2.38584,-3823.5,-447.782)">
                <rect x="2943.82" y="1621.14" width="25.148" height="25.148"/>
            </g>
            <g transform="matrix(2.38584,0,0,2.38584,-3703.5,-447.782)">
                <rect x="2943.82" y="1621.14" width="25.148" height="25.148"/>
            </g>
            <g transform="matrix(2.38584,0,0,2.38584,-3643.5,-507.782)">
                <rect x="2943.82" y="1621.14" width="25.148" height="25.148"/>
            </g>
            <g transform="matrix(2.38584,0,0,2.38584,-3523.5,-507.782)">
                <rect x="2943.82" y="1621.14" width="25.148" height="25.148"/>
            </g>
            <g transform="matrix(2.38584,0,0,2.38584,-3403.5,-507.782)">
                <rect x="2943.82" y="1621.14" width="25.148" height="25.148"/>
            </g>
            <g transform="matrix(2.38584,0,0,2.38584,-3583.5,-447.782)">
                <rect x="2943.82" y="1621.14" width="25.148" height="25.148"/>
            </g>
            <g transform="matrix(2.38584,0,0,2.38584,-3463.5,-447.782)">
                <rect x="2943.82" y="1621.14" width="25.148" height="25.148"/>
            </g>
            <g transform="matrix(2.38584,0,0,2.38584,-3763.5,-867.782)">
                <rect x="2943.82" y="1621.14" width="25.148" height="25.148"/>
            </g>
            <g transform="matrix(2.38584,0,0,2.38584,-3643.5,-867.782)">
                <rect x="2943.82" y="1621.14" width="25.148" height="25.148"/>
            </g>
            <g transform="matrix(2.38584,0,0,2.38584,-3523.5,-867.782)">
                <rect x="2943.82" y="1621.14" width="25.148" height="25.148"/>
            </g>
            <g transform="matrix(2.38584,0,0,2.38584,-3403.5,-867.782)">
                <rect x="2943.82" y="1621.14" width="25.148" height="25.148"/>
            </g>
            <g transform="matrix(0.75,0,0,0.75,3410,3270)">
                <g transform="matrix(1,0,0,1,-40,-40)">
                    <g transform="matrix(2,0,0,2,-4,-6)">
                        <g>
                            <path d="M22,10C32.5,11 38.5,18 38,39L15,39C15,30 25,32.5 23,18" style="fill:rgb(107,203,73);stroke:rgb(107,203,73);stroke-width:1.5px;"/>
                            <path d="M24,18C24.38,20.91 18.45,25.37 16,27C13,29 13.18,31.34 11,31C9.958,30.06 12.41,27.96 11,28C10,28 11.19,29.23 10,30C9,30 5.997,31 6,26C6,24 12,14 12,14C12,14 13.89,12.1 14,10.5C13.27,9.506 13.5,8.5 13.5,7.5C14.5,6.5 16.5,10 16.5,10L18.5,10C18.5,10 19.28,8.008 21,7C22,7 22,10 22,10" style="fill:rgb(107,203,73);stroke:rgb(107,203,73);stroke-width:1.5px;"/>
                        </g>
                        <g>
                            <path d="M9.5,25.5C9.5,25.774 9.274,26 9,26C8.726,26 8.5,25.774 8.5,25.5C8.5,25.226 8.726,25 9,25C9.274,25 9.5,25.226 9.5,25.5Z" style="stroke:black;stroke-width:1.5px;"/>
                            <g transform="matrix(0.866,0.5,-0.5,0.866,9.693,-5.173)">
                                <path d="M15,15.5C15,16.323 14.774,17 14.5,17C14.226,17 14,16.323 14,15.5C14,14.677 14.226,14 14.5,14C14.774,14 15,14.677 15,15.5Z" style="stroke:black;stroke-width:1.5px;"/>
                            </g>
                            <path d="M24.55,10.4L24.1,11.85L24.6,12C27.75,13 30.25,14.49 32.5,18.75C34.75,23.01 35.75,29.06 35.25,39L35.2,39.5L37.45,39.5L37.5,39C38,28.94 36.62,22.15 34.25,17.66C31.88,13.17 28.46,11.02 25.06,10.5L24.55,10.4Z" style="stroke:black;stroke-width:0.5px;stroke-linecap:butt;stroke-miterlimit:1.41421;"/>
                        </g>
                    </g>
                </g>
            </g>
            <g transform="matrix(0.75,0,0,0.75,3350,3210)">
                <g transform="matrix(1,0,0,1,-40,-40)">
                    <g transform="matrix(2,0,0,2,-4,-6)">
                        <g>
                            <path d="M22,10C32.5,11 38.5,18 38,39L15,39C15,30 25,32.5 23,18" style="fill:rgb(107,203,73);stroke:rgb(107,203,73);stroke-width:1.5px;"/>
                            <path d="M24,18C24.38,20.91 18.45,25.37 16,27C13,29 13.18,31.34 11,31C9.958,30.06 12.41,27.96 11,28C10,28 11.19,29.23 10,30C9,30 5.997,31 6,26C6,24 12,14 12,14C12,14 13.89,12.1 14,10.5C13.27,9.506 13.5,8.5 13.5,7.5C14.5,6.5 16.5,10 16.5,10L18.5,10C18.5,10 19.28,8.008 21,7C22,7 22,10 22,10" style="fill:rgb(107,203,73);stroke:rgb(107,203,73);stroke-width:1.5px;"/>
                        </g>
                        <g>
                            <path d="M9.5,25.5C9.5,25.774 9.274,26 9,26C8.726,26 8.5,25.774 8.5,25.5C8.5,25.226 8.726,25 9,25C9.274,25 9.5,25.226 9.5,25.5Z" style="stroke:black;stroke-width:1.5px;"/>
                            <g transform="matrix(0.866,0.5,-0.5,0.866,9.693,-5.173)">
                                <path d="M15,15.5C15,16.323 14.774,17 14.5,17C14.226,17 14,16.323 14,15.5C14,14.677 14.226,14 14.5,14C14.774,14 15,14.677 15,15.5Z" style="stroke:black;stroke-width:1.5px;"/>
                            </g>
                            <path d="M24.55,10.4L24.1,11.85L24.6,12C27.75,13 30.25,14.49 32.5,18.75C34.75,23.01 35.75,29.06 35.25,39L35.2,39.5L37.45,39.5L37.5,39C38,28.94 36.62,22.15 34.25,17.66C31.88,13.17 28.46,11.02 25.06,10.5L24.55,10.4Z" style="stroke:black;stroke-width:0.5px;stroke-linecap:butt;stroke-miterlimit:1.41421;"/>
                        </g>
                    </g>
                </g>
            </g>
            <g transform="matrix(0.75,0,0,0.75,3410,3390)">
                <g transform="matrix(1,0,0,1,-40,-40)">
                    <g transform="matrix(2,0,0,2,-5,-6)">
                        <g>
                            <path d="M9,36C12.39,35.03 19.11,36.43 22.5,34C25.89,36.43 32.61,35.03 36,36C36,36 37.65,36.54 39,38C38.32,38.97 37.35,38.99 36,38.5C32.61,37.53 25.89,38.96 22.5,37.5C19.11,38.96 12.39,37.53 9,38.5C7.646,38.99 6.677,38.97 6,38C7.354,36.06 9,36 9,36Z" style="fill:rgb(107,203,73);stroke:rgb(107,203,73);stroke-width:1.5px;stroke-linecap:butt;"/>
                            <path d="M15,32C17.5,34.5 27.5,34.5 30,32C30.5,30.5 30,30 30,30C30,27.5 27.5,26 27.5,26C33,24.5 33.5,14.5 22.5,10.5C11.5,14.5 12,24.5 17.5,26C17.5,26 15,27.5 15,30C15,30 14.5,30.5 15,32Z" style="fill:rgb(107,203,73);stroke:rgb(107,203,73);stroke-width:1.5px;stroke-linecap:butt;"/>
                            <path d="M25,8C25,9.371 23.871,10.5 22.5,10.5C21.129,10.5 20,9.371 20,8C20,6.629 21.129,5.5 22.5,5.5C23.871,5.5 25,6.629 25,8Z" style="fill:rgb(107,203,73);stroke:rgb(107,203,73);stroke-width:1.5px;stroke-linecap:butt;"/>
                        </g>
                        <path d="M17.5,26L27.5,26M15,30L30,30M22.5,15.5L22.5,20.5M20,18L25,18" style="fill:none;stroke:black;stroke-width:1.5px;stroke-linejoin:miter;"/>
                    </g>
                </g>
            </g>
            <g transform="matrix(0.75,0,0,0.75,3230,3150)">
                <g transform="matrix(1,0,0,1,-40,-40)">
                    <g transform="matrix(2,0,0,2,-5,-6)">
                        <g>
                            <path d="M9,36C12.39,35.03 19.11,36.43 22.5,34C25.89,36.43 32.61,35.03 36,36C36,36 37.65,36.54 39,38C38.32,38.97 37.35,38.99 36,38.5C32.61,37.53 25.89,38.96 22.5,37.5C19.11,38.96 12.39,37.53 9,38.5C7.646,38.99 6.677,38.97 6,38C7.354,36.06 9,36 9,36Z" style="fill:rgb(107,203,73);stroke:rgb(107,203,73);stroke-width:1.5px;stroke-linecap:butt;"/>
                            <path d="M15,32C17.5,34.5 27.5,34.5 30,32C30.5,30.5 30,30 30,30C30,27.5 27.5,26 27.5,26C33,24.5 33.5,14.5 22.5,10.5C11.5,14.5 12,24.5 17.5,26C17.5,26 15,27.5 15,30C15,30 14.5,30.5 15,32Z" style="fill:rgb(107,203,73);stroke:rgb(107,203,73);stroke-width:1.5px;stroke-linecap:butt;"/>
                            <path d="M25,8C25,9.371 23.871,10.5 22.5,10.5C21.129,10.5 20,9.371 20,8C20,6.629 21.129,5.5 22.5,5.5C23.871,5.5 25,6.629 25,8Z" style="fill:rgb(107,203,73);stroke:rgb(107,203,73);stroke-width:1.5px;stroke-linecap:butt;"/>
                        </g>
                        <path d="M17.5,26L27.5,26M15,30L30,30M22.5,15.5L22.5,20.5M20,18L25,18" style="fill:none;stroke:black;stroke-width:1.5px;stroke-linejoin:miter;"/>
                    </g>
                </g>
            </g>
            <g transform="matrix(0.75,0,0,0.75,3470,3150)">
                <g transform="matrix(1,0,0,1,-40,-40)">
                    <g transform="matrix(2,0,0,2,-5,-6)">
                        <g>
                            <g>
                                <circle cx="6" cy="12" r="2.75" style="fill:rgb(107,203,73);stroke:rgb(107,203,73);stroke-width:0.5px;stroke-linecap:butt;stroke-miterlimit:1.41421;"/>
                                <circle cx="14" cy="9" r="2.75" style="fill:rgb(107,203,73);stroke:rgb(107,203,73);stroke-width:0.5px;stroke-linecap:butt;stroke-miterlimit:1.41421;"/>
                                <circle cx="22.5" cy="8" r="2.75" style="fill:rgb(107,203,73);stroke:rgb(107,203,73);stroke-width:0.5px;stroke-linecap:butt;stroke-miterlimit:1.41421;"/>
                                <circle cx="31" cy="9" r="2.75" style="fill:rgb(107,203,73);stroke:rgb(107,203,73);stroke-width:0.5px;stroke-linecap:butt;stroke-miterlimit:1.41421;"/>
                                <circle cx="39" cy="12" r="2.75" style="fill:rgb(107,203,73);stroke:rgb(107,203,73);stroke-width:0.5px;stroke-linecap:butt;stroke-miterlimit:1.41421;"/>
                            </g>
                            <path d="M9,26C17.5,24.5 30,24.5 36,26L38.5,13.5L31,25L30.7,10.9L25.5,24.5L22.5,10L19.5,24.5L14.3,10.9L14,25L6.5,13.5L9,26Z" style="fill:rgb(107,203,73);stroke:rgb(107,203,73);stroke-width:1.5px;stroke-linecap:butt;"/>
                            <path d="M9,26C9,28 10.5,28 11.5,30C12.5,31.5 12.5,31 12,33.5C10.5,34.5 10.5,36 10.5,36C9,37.5 11,38.5 11,38.5C17.5,39.5 27.5,39.5 34,38.5C34,38.5 35.5,37.5 34,36C34,36 34.5,34.5 33,33.5C32.5,31 32.5,31.5 33.5,30C34.5,28 36,28 36,26C27.5,24.5 17.5,24.5 9,26Z" style="fill:rgb(107,203,73);stroke:rgb(107,203,73);stroke-width:1.5px;stroke-linecap:butt;"/>
                            <path d="M11,38.5C18.446,41.09 26.554,41.09 34,38.5" style="fill:rgb(107,203,73);stroke:rgb(107,203,73);stroke-width:1.5px;stroke-linecap:butt;"/>
                        </g>
                        <g>
                            <path d="M11,29C18.446,26.41 26.554,26.41 34,29" style="fill:none;stroke:black;stroke-width:1.5px;"/>
                            <path d="M12.5,31.5L32.5,31.5" style="fill:none;stroke:black;stroke-width:1.5px;"/>
                            <path d="M11.5,34.5C18.642,36.864 26.358,36.864 33.5,34.5" style="fill:none;stroke:black;stroke-width:1.5px;"/>
                            <path d="M10.5,37.5C18.248,40.328 26.752,40.328 34.5,37.5" style="fill:none;stroke:black;stroke-width:1.5px;"/>
                        </g>
                    </g>
                </g>
            </g>
            <g transform="matrix(0.75,0,0,0.75,3530,3150)">
                <g transform="matrix(1,0,0,1,-40,-40)">
                    <g transform="matrix(2,0,0,2,-4,-6)">
                        <path d="M22,9C19.79,9 18,10.79 18,13C18,13.89 18.29,14.71 18.78,15.38C16.83,16.5 15.5,18.59 15.5,21C15.5,23.03 16.44,24.84 17.91,26.03C14.91,27.09 10.5,31.58 10.5,39.5L33.5,39.5C33.5,31.58 29.09,27.09 26.09,26.03C27.56,24.84 28.5,23.03 28.5,21C28.5,18.59 27.17,16.5 25.22,15.38C25.71,14.71 26,13.89 26,13C26,10.79 24.21,9 22,9Z" style="fill:rgb(253,115,55);fill-rule:nonzero;stroke:rgb(253,115,55);stroke-width:1.5px;stroke-linejoin:miter;"/>
                    </g>
                </g>
            </g>
            <g transform="matrix(0.75,0,0,0.75,3590,3090)">
                <g transform="matrix(1,0,0,1,-40,-40)">
                    <g transform="matrix(2,0,0,2,-4,-6)">
                        <path d="M22,9C19.79,9 18,10.79 18,13C18,13.89 18.29,14.71 18.78,15.38C16.83,16.5 15.5,18.59 15.5,21C15.5,23.03 16.44,24.84 17.91,26.03C14.91,27.09 10.5,31.58 10.5,39.5L33.5,39.5C33.5,31.58 29.09,27.09 26.09,26.03C27.56,24.84 28.5,23.03 28.5,21C28.5,18.59 27.17,16.5 25.22,15.38C25.71,14.71 26,13.89 26,13C26,10.79 24.21,9 22,9Z" style="fill:rgb(253,115,55);fill-rule:nonzero;stroke:rgb(253,115,55);stroke-width:1.5px;stroke-linejoin:miter;"/>
                    </g>
                </g>
            </g>
            <g transform="matrix(0.75,0,0,0.75,3470,3090)">
                <g transform="matrix(1,0,0,1,-40,-40)">
                    <g transform="matrix(2,0,0,2,-4,-6)">
                        <path d="M22,9C19.79,9 18,10.79 18,13C18,13.89 18.29,14.71 18.78,15.38C16.83,16.5 15.5,18.59 15.5,21C15.5,23.03 16.44,24.84 17.91,26.03C14.91,27.09 10.5,31.58 10.5,39.5L33.5,39.5C33.5,31.58 29.09,27.09 26.09,26.03C27.56,24.84 28.5,23.03 28.5,21C28.5,18.59 27.17,16.5 25.22,15.38C25.71,14.71 26,13.89 26,13C26,10.79 24.21,9 22,9Z" style="fill:rgb(253,115,55);fill-rule:nonzero;stroke:rgb(253,115,55);stroke-width:1.5px;stroke-linejoin:miter;"/>
                    </g>
                </g>
            </g>
            <g transform="matrix(0.75,0,0,0.75,3230,3090)">
                <g transform="matrix(1,0,0,1,-40,-40)">
                    <g transform="matrix(2,0,0,2,-4,-6)">
                        <path d="M22,9C19.79,9 18,10.79 18,13C18,13.89 18.29,14.71 18.78,15.38C16.83,16.5 15.5,18.59 15.5,21C15.5,23.03 16.44,24.84 17.91,26.03C14.91,27.09 10.5,31.58 10.5,39.5L33.5,39.5C33.5,31.58 29.09,27.09 26.09,26.03C27.56,24.84 28.5,23.03 28.5,21C28.5,18.59 27.17,16.5 25.22,15.38C25.71,14.71 26,13.89 26,13C26,10.79 24.21,9 22,9Z" style="fill:rgb(253,115,55);fill-rule:nonzero;stroke:rgb(253,115,55);stroke-width:1.5px;stroke-linejoin:miter;"/>
                    </g>
                </g>
            </g>
            <g transform="matrix(0.75,0,0,0.75,3290,3090)">
                <g transform="matrix(1,0,0,1,-40,-40)">
                    <g transform="matrix(2,0,0,2,-4,-6)">
                        <path d="M22,9C19.79,9 18,10.79 18,13C18,13.89 18.29,14.71 18.78,15.38C16.83,16.5 15.5,18.59 15.5,21C15.5,23.03 16.44,24.84 17.91,26.03C14.91,27.09 10.5,31.58 10.5,39.5L33.5,39.5C33.5,31.58 29.09,27.09 26.09,26.03C27.56,24.84 28.5,23.03 28.5,21C28.5,18.59 27.17,16.5 25.22,15.38C25.71,14.71 26,13.89 26,13C26,10.79 24.21,9 22,9Z" style="fill:rgb(253,115,55);fill-rule:nonzero;stroke:rgb(253,115,55);stroke-width:1.5px;stroke-linejoin:miter;"/>
                    </g>
                </g>
            </g>
            <g transform="matrix(0.75,0,0,0.75,3350,3090)">
                <g transform="matrix(1,0,0,1,-40,-40)">
                    <g transform="matrix(2,0,0,2,-4,-6)">
                        <path d="M22,9C19.79,9 18,10.79 18,13C18,13.89 18.29,14.71 18.78,15.38C16.83,16.5 15.5,18.59 15.5,21C15.5,23.03 16.44,24.84 17.91,26.03C14.91,27.09 10.5,31.58 10.5,39.5L33.5,39.5C33.5,31.58 29.09,27.09 26.09,26.03C27.56,24.84 28.5,23.03 28.5,21C28.5,18.59 27.17,16.5 25.22,15.38C25.71,14.71 26,13.89 26,13C26,10.79 24.21,9 22,9Z" style="fill:rgb(253,115,55);fill-rule:nonzero;stroke:rgb(253,115,55);stroke-width:1.5px;stroke-linejoin:miter;"/>
                    </g>
                </g>
            </g>
            <g transform="matrix(0.75,0,0,0.75,3350,3030)">
                <g transform="matrix(1,0,0,1,-40,-40)">
                    <g transform="matrix(2,0,0,2,-5,-6)">
                        <g>
                            <rect x="9" y="36" width="27" height="3" style="fill:rgb(253,115,55);stroke:rgb(253,115,55);stroke-width:1.5px;stroke-linecap:butt;"/>
                            <path d="M12.5,32L14,29.5L31,29.5L32.5,32L12.5,32Z" style="fill:rgb(253,115,55);stroke:rgb(253,115,55);stroke-width:1.5px;stroke-linecap:butt;"/>
                            <rect x="12" y="32" width="21" height="4" style="fill:rgb(253,115,55);stroke:rgb(253,115,55);stroke-width:1.5px;stroke-linecap:butt;"/>
                            <rect x="14" y="16.5" width="17" height="13" style="fill:rgb(253,115,55);stroke:rgb(253,115,55);stroke-width:1.5px;stroke-linecap:butt;stroke-linejoin:miter;"/>
                            <path d="M14,16.5L11,14L34,14L31,16.5L14,16.5Z" style="fill:rgb(253,115,55);stroke:rgb(253,115,55);stroke-width:1.5px;stroke-linecap:butt;"/>
                            <path d="M11,14L11,9L15,9L15,11L20,11L20,9L25,9L25,11L30,11L30,9L34,9L34,14L11,14Z" style="fill:rgb(253,115,55);stroke:rgb(253,115,55);stroke-width:1.5px;stroke-linecap:butt;"/>
                        </g>
                        <path d="M12,35.5L33,35.5" style="fill:none;stroke:white;stroke-width:1px;stroke-linejoin:miter;"/>
                        <path d="M13,31.5L32,31.5" style="fill:none;stroke:white;stroke-width:1px;stroke-linejoin:miter;"/>
                        <path d="M14,29.5L31,29.5" style="fill:none;stroke:white;stroke-width:1px;stroke-linejoin:miter;"/>
                        <path d="M14,16.5L31,16.5" style="fill:none;stroke:white;stroke-width:1px;stroke-linejoin:miter;"/>
                        <path d="M11,14L34,14" style="fill:none;stroke:white;stroke-width:1px;stroke-linejoin:miter;"/>
                    </g>
                </g>
            </g>
            <g transform="matrix(0.75,0,0,0.75,3530,3030)">
                <g transform="matrix(1,0,0,1,-40,-40)">
                    <g transform="matrix(2,0,0,2,-5,-6)">
                        <g>
                            <path d="M9,36C12.39,35.03 19.11,36.43 22.5,34C25.89,36.43 32.61,35.03 36,36C36,36 37.65,36.54 39,38C38.32,38.97 37.35,38.99 36,38.5C32.61,37.53 25.89,38.96 22.5,37.5C19.11,38.96 12.39,37.53 9,38.5C7.646,38.99 6.677,38.97 6,38C7.354,36.06 9,36 9,36Z" style="fill:rgb(253,115,55);stroke:rgb(253,115,55);stroke-width:1.5px;stroke-linecap:butt;"/>
                            <path d="M15,32C17.5,34.5 27.5,34.5 30,32C30.5,30.5 30,30 30,30C30,27.5 27.5,26 27.5,26C33,24.5 33.5,14.5 22.5,10.5C11.5,14.5 12,24.5 17.5,26C17.5,26 15,27.5 15,30C15,30 14.5,30.5 15,32Z" style="fill:rgb(253,115,55);stroke:rgb(253,115,55);stroke-width:1.5px;stroke-linecap:butt;"/>
                            <path d="M25,8C25,9.371 23.871,10.5 22.5,10.5C21.129,10.5 20,9.371 20,8C20,6.629 21.129,5.5 22.5,5.5C23.871,5.5 25,6.629 25,8Z" style="fill:rgb(253,115,55);stroke:rgb(253,115,55);stroke-width:1.5px;stroke-linecap:butt;"/>
                        </g>
                        <path d="M17.5,26L27.5,26M15,30L30,30M22.5,15.5L22.5,20.5M20,18L25,18" style="fill:none;stroke:white;stroke-width:1.5px;stroke-linejoin:miter;"/>
                    </g>
                </g>
            </g>
            <g transform="matrix(0.75,0,0,0.75,3470,3030)">
                <g transform="matrix(1,0,0,1,-40,-40)">
                    <g transform="matrix(2,0,0,2,-5,-6)">
                        <g>
                            <path d="M9,36C12.39,35.03 19.11,36.43 22.5,34C25.89,36.43 32.61,35.03 36,36C36,36 37.65,36.54 39,38C38.32,38.97 37.35,38.99 36,38.5C32.61,37.53 25.89,38.96 22.5,37.5C19.11,38.96 12.39,37.53 9,38.5C7.646,38.99 6.677,38.97 6,38C7.354,36.06 9,36 9,36Z" style="fill:rgb(253,115,55);stroke:rgb(253,115,55);stroke-width:1.5px;stroke-linecap:butt;"/>
                            <path d="M15,32C17.5,34.5 27.5,34.5 30,32C30.5,30.5 30,30 30,30C30,27.5 27.5,26 27.5,26C33,24.5 33.5,14.5 22.5,10.5C11.5,14.5 12,24.5 17.5,26C17.5,26 15,27.5 15,30C15,30 14.5,30.5 15,32Z" style="fill:rgb(253,115,55);stroke:rgb(253,115,55);stroke-width:1.5px;stroke-linecap:butt;"/>
                            <path d="M25,8C25,9.371 23.871,10.5 22.5,10.5C21.129,10.5 20,9.371 20,8C20,6.629 21.129,5.5 22.5,5.5C23.871,5.5 25,6.629 25,8Z" style="fill:rgb(253,115,55);stroke:rgb(253,115,55);stroke-width:1.5px;stroke-linecap:butt;"/>
                        </g>
                        <path d="M17.5,26L27.5,26M15,30L30,30M22.5,15.5L22.5,20.5M20,18L25,18" style="fill:none;stroke:white;stroke-width:1.5px;stroke-linejoin:miter;"/>
                    </g>
                </g>
            </g>
            <g transform="matrix(0.75,0,0,0.75,3290,3030)">
                <g transform="matrix(1,0,0,1,-40,-40)">
                    <clipPath id="_clip2">
                        <rect x="0" y="0" width="80" height="80"/>
                    </clipPath>
                    <g clip-path="url(#_clip2)">
                        <g transform="matrix(2,0,0,2,-5,-6)">
                            <g>
                                <path d="M22.5,11.63L22.5,6" style="fill:rgb(253,115,55);stroke:rgb(253,115,55);stroke-width:1.5px;stroke-linejoin:miter;"/>
                                <path d="M22.5,25C22.5,25 27,17.5 25.5,14.5C25.5,14.5 24.5,12 22.5,12C20.5,12 19.5,14.5 19.5,14.5C18,17.5 22.5,25 22.5,25" style="fill:rgb(253,115,55);stroke:rgb(253,115,55);stroke-width:1.5px;stroke-linecap:butt;stroke-linejoin:miter;"/>
                                <path d="M11.5,37C17,40.5 27,40.5 32.5,37L32.5,30C32.5,30 41.5,25.5 38.5,19.5C34.5,13 25,16 22.5,23.5L22.5,27L22.5,23.5C19,16 9.5,13 6.5,19.5C3.5,25.5 11.5,29.5 11.5,29.5L11.5,37Z" style="fill:rgb(253,115,55);stroke:rgb(253,115,55);stroke-width:1.5px;"/>
                                <path d="M20,8L25,8" style="fill:rgb(253,115,55);stroke:rgb(253,115,55);stroke-width:1.5px;stroke-linejoin:miter;"/>
                            </g>
                            <path d="M32,29.5C32,29.5 40.5,25.5 38.03,19.85C34.15,14 25,18 22.5,24.5L22.51,26.6L22.5,24.5C20,18 9.906,14 6.997,19.85C4.5,25.5 11.85,28.85 11.85,28.85" style="fill:none;stroke:white;stroke-width:1.5px;"/>
                            <path d="M11.5,30C17,27 27,27 32.5,30M11.5,33.5C17,30.5 27,30.5 32.5,33.5M11.5,37C17,34 27,34 32.5,37" style="fill:none;stroke:white;stroke-width:1.5px;"/>
                        </g>
                    </g>
                </g>
            </g>
            <g transform="matrix(0.75,0,0,0.75,3350,3450)">
                <g transform="matrix(1,0,0,1,-40,-40)">
                    <g transform="matrix(2,0,0,2,-5,-6)">
                        <g>
                            <rect x="9" y="36" width="27" height="3" style="fill:rgb(107,203,73);stroke:rgb(107,203,73);stroke-width:1.5px;stroke-linecap:butt;"/>
                            <path d="M12.5,32L14,29.5L31,29.5L32.5,32L12.5,32Z" style="fill:rgb(107,203,73);stroke:rgb(107,203,73);stroke-width:1.5px;stroke-linecap:butt;"/>
                            <rect x="12" y="32" width="21" height="4" style="fill:rgb(107,203,73);stroke:rgb(107,203,73);stroke-width:1.5px;stroke-linecap:butt;"/>
                            <rect x="14" y="16.5" width="17" height="13" style="fill:rgb(107,203,73);stroke:rgb(107,203,73);stroke-width:1.5px;stroke-linecap:butt;stroke-linejoin:miter;"/>
                            <path d="M14,16.5L11,14L34,14L31,16.5L14,16.5Z" style="fill:rgb(107,203,73);stroke:rgb(107,203,73);stroke-width:1.5px;stroke-linecap:butt;"/>
                            <path d="M11,14L11,9L15,9L15,11L20,11L20,9L25,9L25,11L30,11L30,9L34,9L34,14L11,14Z" style="fill:rgb(107,203,73);stroke:rgb(107,203,73);stroke-width:1.5px;stroke-linecap:butt;"/>
                        </g>
                        <g>
                            <path d="M12,35.5L33,35.5" style="stroke:black;stroke-width:1px;stroke-linejoin:miter;"/>
                            <path d="M13,31.5L32,31.5" style="stroke:black;stroke-width:1px;stroke-linejoin:miter;"/>
                            <path d="M14,29.5L31,29.5" style="stroke:black;stroke-width:1px;stroke-linejoin:miter;"/>
                            <path d="M14,16.5L31,16.5" style="stroke:black;stroke-width:1px;stroke-linejoin:miter;"/>
                            <path d="M11,14L34,14" style="stroke:black;stroke-width:1px;stroke-linejoin:miter;"/>
                        </g>
                    </g>
                </g>
            </g>
            <g transform="matrix(0.75,0,0,0.75,3290,3450)">
                <g transform="matrix(1,0,0,1,-40,-40)">
                    <clipPath id="_clip3">
                        <rect x="0" y="0" width="80" height="80"/>
                    </clipPath>
                    <g clip-path="url(#_clip3)">
                        <g transform="matrix(2,0,0,2,-5,-6)">
                            <g>
                                <path d="M22.5,11.63L22.5,6" style="fill:rgb(107,203,73);stroke:rgb(107,203,73);stroke-width:1.5px;stroke-linejoin:miter;"/>
                                <path d="M22.5,25C22.5,25 27,17.5 25.5,14.5C25.5,14.5 24.5,12 22.5,12C20.5,12 19.5,14.5 19.5,14.5C18,17.5 22.5,25 22.5,25" style="fill:rgb(107,203,73);stroke:rgb(107,203,73);stroke-width:1.5px;stroke-linecap:butt;stroke-linejoin:miter;"/>
                                <path d="M11.5,37C17,40.5 27,40.5 32.5,37L32.5,30C32.5,30 41.5,25.5 38.5,19.5C34.5,13 25,16 22.5,23.5L22.5,27L22.5,23.5C19,16 9.5,13 6.5,19.5C3.5,25.5 11.5,29.5 11.5,29.5L11.5,37Z" style="fill:rgb(107,203,73);stroke:rgb(107,203,73);stroke-width:1.5px;"/>
                                <path d="M20,8L25,8" style="fill:rgb(107,203,73);stroke:rgb(107,203,73);stroke-width:1.5px;stroke-linejoin:miter;"/>
                            </g>
                            <path d="M32,29.5C32,29.5 40.5,25.5 38.03,19.85C34.15,14 25,18 22.5,24.5L22.51,26.6L22.5,24.5C20,18 9.906,14 6.997,19.85C4.5,25.5 11.85,28.85 11.85,28.85" style="fill:none;stroke:black;stroke-width:1.5px;"/>
                            <path d="M11.5,30C17,27 27,27 32.5,30M11.5,33.5C17,30.5 27,30.5 32.5,33.5M11.5,37C17,34 27,34 32.5,37" style="fill:none;stroke:black;stroke-width:1.5px;"/>
                        </g>
                    </g>
                </g>
            </g>
            <g transform="matrix(0.75,0,0,0.75,3590,3270)">
                <g transform="matrix(1,0,0,1,-40,-40)">
                    <clipPath id="_clip4">
                        <rect x="0" y="0" width="80" height="80"/>
                    </clipPath>
                    <g clip-path="url(#_clip4)">
                        <g transform="matrix(2,0,0,2,-4,-4)">
                            <path d="M22,9C19.79,9 18,10.79 18,13C18,13.89 18.29,14.71 18.78,15.38C16.83,16.5 15.5,18.59 15.5,21C15.5,23.03 16.44,24.84 17.91,26.03C14.91,27.09 10.5,31.58 10.5,39.5L33.5,39.5C33.5,31.58 29.09,27.09 26.09,26.03C27.56,24.84 28.5,23.03 28.5,21C28.5,18.59 27.17,16.5 25.22,15.38C25.71,14.71 26,13.89 26,13C26,10.79 24.21,9 22,9Z" style="fill:rgb(107,203,73);fill-rule:nonzero;stroke:rgb(107,203,73);stroke-width:1.5px;stroke-linejoin:miter;"/>
                        </g>
                    </g>
                </g>
            </g>
            <g transform="matrix(0.75,0,0,0.75,3530,3390)">
                <g transform="matrix(1,0,0,1,-40,-40)">
                    <clipPath id="_clip5">
                        <rect x="0" y="0" width="80" height="80"/>
                    </clipPath>
                    <g clip-path="url(#_clip5)">
                        <g transform="matrix(2,0,0,2,-4,-4)">
                            <path d="M22,9C19.79,9 18,10.79 18,13C18,13.89 18.29,14.71 18.78,15.38C16.83,16.5 15.5,18.59 15.5,21C15.5,23.03 16.44,24.84 17.91,26.03C14.91,27.09 10.5,31.58 10.5,39.5L33.5,39.5C33.5,31.58 29.09,27.09 26.09,26.03C27.56,24.84 28.5,23.03 28.5,21C28.5,18.59 27.17,16.5 25.22,15.38C25.71,14.71 26,13.89 26,13C26,10.79 24.21,9 22,9Z" style="fill:rgb(107,203,73);fill-rule:nonzero;stroke:rgb(107,203,73);stroke-width:1.5px;stroke-linejoin:miter;"/>
                        </g>
                    </g>
                </g>
            </g>
            <g transform="matrix(0.75,0,0,0.75,3230,3390)">
                <g transform="matrix(1,0,0,1,-40,-40)">
                    <clipPath id="_clip6">
                        <rect x="0" y="0" width="80" height="80"/>
                    </clipPath>
                    <g clip-path="url(#_clip6)">
                        <g transform="matrix(2,0,0,2,-4,-4)">
                            <path d="M22,9C19.79,9 18,10.79 18,13C18,13.89 18.29,14.71 18.78,15.38C16.83,16.5 15.5,18.59 15.5,21C15.5,23.03 16.44,24.84 17.91,26.03C14.91,27.09 10.5,31.58 10.5,39.5L33.5,39.5C33.5,31.58 29.09,27.09 26.09,26.03C27.56,24.84 28.5,23.03 28.5,21C28.5,18.59 27.17,16.5 25.22,15.38C25.71,14.71 26,13.89 26,13C26,10.79 24.21,9 22,9Z" style="fill:rgb(107,203,73);fill-rule:nonzero;stroke:rgb(107,203,73);stroke-width:1.5px;stroke-linejoin:miter;"/>
                        </g>
                    </g>
                </g>
            </g>
            <g transform="matrix(0.75,0,0,0.75,3290,3389.04)">
                <g transform="matrix(1,0,0,1,-40,-40)">
                    <clipPath id="_clip7">
                        <rect x="0" y="0" width="80" height="80"/>
                    </clipPath>
                    <g clip-path="url(#_clip7)">
                        <g transform="matrix(2,0,0,2,-4,-4)">
                            <path d="M22,9C19.79,9 18,10.79 18,13C18,13.89 18.29,14.71 18.78,15.38C16.83,16.5 15.5,18.59 15.5,21C15.5,23.03 16.44,24.84 17.91,26.03C14.91,27.09 10.5,31.58 10.5,39.5L33.5,39.5C33.5,31.58 29.09,27.09 26.09,26.03C27.56,24.84 28.5,23.03 28.5,21C28.5,18.59 27.17,16.5 25.22,15.38C25.71,14.71 26,13.89 26,13C26,10.79 24.21,9 22,9Z" style="fill:rgb(107,203,73);fill-rule:nonzero;stroke:rgb(107,203,73);stroke-width:1.5px;stroke-linejoin:miter;"/>
                        </g>
                    </g>
                </g>
            </g>
            <g transform="matrix(0.75,0,0,0.75,3350,3390)">
                <g transform="matrix(1,0,0,1,-40,-40)">
                    <clipPath id="_clip8">
                        <rect x="0" y="0" width="80" height="80"/>
                    </clipPath>
                    <g clip-path="url(#_clip8)">
                        <g transform="matrix(2,0,0,2,-4,-4)">
                            <path d="M22,9C19.79,9 18,10.79 18,13C18,13.89 18.29,14.71 18.78,15.38C16.83,16.5 15.5,18.59 15.5,21C15.5,23.03 16.44,24.84 17.91,26.03C14.91,27.09 10.5,31.58 10.5,39.5L33.5,39.5C33.5,31.58 29.09,27.09 26.09,26.03C27.56,24.84 28.5,23.03 28.5,21C28.5,18.59 27.17,16.5 25.22,15.38C25.71,14.71 26,13.89 26,13C26,10.79 24.21,9 22,9Z" style="fill:rgb(107,203,73);fill-rule:nonzero;stroke:rgb(107,203,73);stroke-width:1.5px;stroke-linejoin:miter;"/>
                        </g>
                    </g>
                </g>
            </g>
            <g transform="matrix(0.75,0,0,0.75,3650,3090)">
                <g transform="matrix(1,0,0,1,-40,-40)">
                    <g transform="matrix(2,0,0,2,-4,-6)">
                        <path d="M22,9C19.79,9 18,10.79 18,13C18,13.89 18.29,14.71 18.78,15.38C16.83,16.5 15.5,18.59 15.5,21C15.5,23.03 16.44,24.84 17.91,26.03C14.91,27.09 10.5,31.58 10.5,39.5L33.5,39.5C33.5,31.58 29.09,27.09 26.09,26.03C27.56,24.84 28.5,23.03 28.5,21C28.5,18.59 27.17,16.5 25.22,15.38C25.71,14.71 26,13.89 26,13C26,10.79 24.21,9 22,9Z" style="fill:rgb(253,115,55);fill-rule:nonzero;stroke:rgb(253,115,55);stroke-width:1.5px;stroke-linejoin:miter;"/>
                    </g>
                </g>
            </g>
            <g transform="matrix(0.75,0,0,0.75,3650,3030)">
                <g transform="matrix(1,0,0,1,-40,-40)">
                    <g transform="matrix(2,0,0,2,-5,-6)">
                        <g>
                            <rect x="9" y="36" width="27" height="3" style="fill:rgb(253,115,55);stroke:rgb(253,115,55);stroke-width:1.5px;stroke-linecap:butt;"/>
                            <path d="M12.5,32L14,29.5L31,29.5L32.5,32L12.5,32Z" style="fill:rgb(253,115,55);stroke:rgb(253,115,55);stroke-width:1.5px;stroke-linecap:butt;"/>
                            <rect x="12" y="32" width="21" height="4" style="fill:rgb(253,115,55);stroke:rgb(253,115,55);stroke-width:1.5px;stroke-linecap:butt;"/>
                            <rect x="14" y="16.5" width="17" height="13" style="fill:rgb(253,115,55);stroke:rgb(253,115,55);stroke-width:1.5px;stroke-linecap:butt;stroke-linejoin:miter;"/>
                            <path d="M14,16.5L11,14L34,14L31,16.5L14,16.5Z" style="fill:rgb(253,115,55);stroke:rgb(253,115,55);stroke-width:1.5px;stroke-linecap:butt;"/>
                            <path d="M11,14L11,9L15,9L15,11L20,11L20,9L25,9L25,11L30,11L30,9L34,9L34,14L11,14Z" style="fill:rgb(253,115,55);stroke:rgb(253,115,55);stroke-width:1.5px;stroke-linecap:butt;"/>
                        </g>
                        <path d="M12,35.5L33,35.5" style="fill:none;stroke:white;stroke-width:1px;stroke-linejoin:miter;"/>
                        <path d="M13,31.5L32,31.5" style="fill:none;stroke:white;stroke-width:1px;stroke-linejoin:miter;"/>
                        <path d="M14,29.5L31,29.5" style="fill:none;stroke:white;stroke-width:1px;stroke-linejoin:miter;"/>
                        <path d="M14,16.5L31,16.5" style="fill:none;stroke:white;stroke-width:1px;stroke-linejoin:miter;"/>
                        <path d="M11,14L34,14" style="fill:none;stroke:white;stroke-width:1px;stroke-linejoin:miter;"/>
                    </g>
                </g>
            </g>
            <g transform="matrix(0.75,0,0,0.75,3590,3030)">
                <g transform="matrix(1,0,0,1,-40,-40)">
                    <g transform="matrix(2,0,0,2,-4,-6)">
                        <g>
                            <path d="M22,10C32.5,11 38.5,18 38,39L15,39C15,30 25,32.5 23,18" style="fill:rgb(253,115,55);stroke:rgb(253,115,55);stroke-width:1.5px;"/>
                            <path d="M24,18C24.38,20.91 18.45,25.37 16,27C13,29 13.18,31.34 11,31C9.958,30.06 12.41,27.96 11,28C10,28 11.19,29.23 10,30C9,30 5.997,31 6,26C6,24 12,14 12,14C12,14 13.89,12.1 14,10.5C13.27,9.506 13.5,8.5 13.5,7.5C14.5,6.5 16.5,10 16.5,10L18.5,10C18.5,10 19.28,8.008 21,7C22,7 22,10 22,10" style="fill:rgb(253,115,55);stroke:rgb(253,115,55);stroke-width:1.5px;"/>
                        </g>
                        <path d="M9.5,25.5C9.5,25.774 9.274,26 9,26C8.726,26 8.5,25.774 8.5,25.5C8.5,25.226 8.726,25 9,25C9.274,25 9.5,25.226 9.5,25.5Z" style="fill:white;stroke:white;stroke-width:1.5px;"/>
                        <g transform="matrix(0.866,0.5,-0.5,0.866,9.693,-5.173)">
                            <path d="M15,15.5C15,16.323 14.774,17 14.5,17C14.226,17 14,16.323 14,15.5C14,14.677 14.226,14 14.5,14C14.774,14 15,14.677 15,15.5Z" style="fill:white;stroke:white;stroke-width:1.5px;"/>
                        </g>
                        <path d="M24.55,10.4L24.1,11.85L24.6,12C27.75,13 30.25,14.49 32.5,18.75C34.75,23.01 35.75,29.06 35.25,39L35.2,39.5L37.45,39.5L37.5,39C38,28.94 36.62,22.15 34.25,17.66C31.88,13.17 28.46,11.02 25.06,10.5L24.55,10.4Z" style="fill:white;"/>
                    </g>
                </g>
            </g>
            <g transform="matrix(0.75,0,0,0.75,3650,3330)">
                <g transform="matrix(1,0,0,1,-40,-40)">
                    <g transform="matrix(2,0,0,2,-5,-6)">
                        <g>
                            <circle cx="6" cy="12" r="2.75" style="fill:rgb(253,115,55);"/>
                            <circle cx="14" cy="9" r="2.75" style="fill:rgb(253,115,55);"/>
                            <circle cx="22.5" cy="8" r="2.75" style="fill:rgb(253,115,55);"/>
                            <circle cx="31" cy="9" r="2.75" style="fill:rgb(253,115,55);"/>
                            <circle cx="39" cy="12" r="2.75" style="fill:rgb(253,115,55);"/>
                        </g>
                        <path d="M9,26C17.5,24.5 30,24.5 36,26L38.5,13.5L31,25L30.7,10.9L25.5,24.5L22.5,10L19.5,24.5L14.3,10.9L14,25L6.5,13.5L9,26Z" style="fill:rgb(253,115,55);stroke:rgb(253,115,55);stroke-width:1.5px;stroke-linecap:butt;"/>
                        <path d="M9,26C9,28 10.5,28 11.5,30C12.5,31.5 12.5,31 12,33.5C10.5,34.5 10.5,36 10.5,36C9,37.5 11,38.5 11,38.5C17.5,39.5 27.5,39.5 34,38.5C34,38.5 35.5,37.5 34,36C34,36 34.5,34.5 33,33.5C32.5,31 32.5,31.5 33.5,30C34.5,28 36,28 36,26C27.5,24.5 17.5,24.5 9,26Z" style="fill:rgb(253,115,55);stroke:rgb(253,115,55);stroke-width:1.5px;stroke-linecap:butt;"/>
                        <path d="M11,38.5C18.446,41.09 26.554,41.09 34,38.5" style="fill:none;stroke:rgb(253,115,55);stroke-width:1.5px;stroke-linecap:butt;"/>
                        <path d="M11,29C18.446,26.41 26.554,26.41 34,29" style="fill:none;stroke:white;stroke-width:1.5px;"/>
                        <path d="M12.5,31.5L32.5,31.5" style="fill:none;stroke:white;stroke-width:1.5px;"/>
                        <path d="M11.5,34.5C18.642,36.864 26.358,36.864 33.5,34.5" style="fill:none;stroke:white;stroke-width:1.5px;"/>
                        <path d="M10.5,37.5C18.248,40.328 26.752,40.328 34.5,37.5" style="fill:none;stroke:white;stroke-width:1.5px;"/>
                    </g>
                </g>
            </g>
        </g>
    </g>
    <defs>
        <linearGradient id="_Linear1" x1="0" y1="0" x2="1" y2="0" gradientUnits="userSpaceOnUse" gradientTransform="matrix(133.642,0,0,133.642,2899.3,1655.6)"><stop offset="0%" style="stop-color:white;stop-opacity:1"/><stop offset="100%" style="stop-color:white;stop-opacity:1"/></linearGradient>
    </defs>
</svg>
