<?xml version="1.0" encoding="UTF-8" standalone="no"?>
<!DOCTYPE svg PUBLIC "-//W3C//DTD SVG 1.1//EN" "http://www.w3.org/Graphics/SVG/1.1/DTD/svg11.dtd">
<svg width="100%" height="100%" viewBox="0 0 480 480" version="1.1" xmlns="http://www.w3.org/2000/svg" xmlns:xlink="http://www.w3.org/1999/xlink" xml:space="preserve" style="fill-rule:evenodd;clip-rule:evenodd;stroke-linejoin:round;stroke-miterlimit:1.41421;">
    <g transform="matrix(1,0,0,1,-2500,-3210)">
        <g id="colorboardmask3">
            <g transform="matrix(3.59167,0,0,3.59167,-7913.34,-2496.37)">
                <rect x="2899.3" y="1588.78" width="133.642" height="133.642" style="fill:url(#_Linear1);"/>
            </g>
            <g transform="matrix(2.38584,0,0,2.38584,-4523.5,-597.782)">
                <rect x="2943.82" y="1621.14" width="25.148" height="25.148"/>
            </g>
            <g transform="matrix(2.38584,0,0,2.38584,-4463.5,-537.782)">
                <rect x="2943.82" y="1621.14" width="25.148" height="25.148"/>
            </g>
            <g transform="matrix(2.38584,0,0,2.38584,-4403.5,-597.782)">
                <rect x="2943.82" y="1621.14" width="25.148" height="25.148"/>
            </g>
            <g transform="matrix(2.38584,0,0,2.38584,-4523.5,-477.782)">
                <rect x="2943.82" y="1621.14" width="25.148" height="25.148"/>
            </g>
            <g transform="matrix(2.38584,0,0,2.38584,-4403.5,-477.782)">
                <rect x="2943.82" y="1621.14" width="25.148" height="25.148"/>
            </g>
            <g transform="matrix(2.38584,0,0,2.38584,-4343.5,-537.782)">
                <rect x="2943.82" y="1621.14" width="25.148" height="25.148"/>
            </g>
            <g transform="matrix(2.38584,0,0,2.38584,-4283.5,-597.782)">
                <rect x="2943.82" y="1621.14" width="25.148" height="25.148"/>
            </g>
            <g transform="matrix(2.38584,0,0,2.38584,-4223.5,-537.782)">
                <rect x="2943.82" y="1621.14" width="25.148" height="25.148"/>
            </g>
            <g transform="matrix(2.38584,0,0,2.38584,-4163.5,-597.782)">
                <rect x="2943.82" y="1621.14" width="25.148" height="25.148"/>
            </g>
            <g transform="matrix(2.38584,0,0,2.38584,-4103.5,-537.782)">
                <rect x="2943.82" y="1621.14" width="25.148" height="25.148"/>
            </g>
            <g transform="matrix(2.38584,0,0,2.38584,-4283.5,-477.782)">
                <rect x="2943.82" y="1621.14" width="25.148" height="25.148"/>
            </g>
            <g transform="matrix(2.38584,0,0,2.38584,-4163.5,-477.782)">
                <rect x="2943.82" y="1621.14" width="25.148" height="25.148"/>
            </g>
            <g transform="matrix(2.38584,0,0,2.38584,-4463.5,-417.782)">
                <rect x="2943.82" y="1621.14" width="25.148" height="25.148"/>
            </g>
            <g transform="matrix(2.38584,0,0,2.38584,-4523.5,-357.782)">
                <rect x="2943.82" y="1621.14" width="25.148" height="25.148"/>
            </g>
            <g transform="matrix(2.38584,0,0,2.38584,-4403.5,-357.782)">
                <rect x="2943.82" y="1621.14" width="25.148" height="25.148"/>
            </g>
            <g transform="matrix(2.38584,0,0,2.38584,-4343.5,-417.782)">
                <rect x="2943.82" y="1621.14" width="25.148" height="25.148"/>
            </g>
            <g transform="matrix(2.38584,0,0,2.38584,-4223.5,-417.782)">
                <rect x="2943.82" y="1621.14" width="25.148" height="25.148"/>
            </g>
            <g transform="matrix(2.38584,0,0,2.38584,-4103.5,-417.782)">
                <rect x="2943.82" y="1621.14" width="25.148" height="25.148"/>
            </g>
            <g transform="matrix(2.38584,0,0,2.38584,-4283.5,-357.782)">
                <rect x="2943.82" y="1621.14" width="25.148" height="25.148"/>
            </g>
            <g transform="matrix(2.38584,0,0,2.38584,-4163.5,-357.782)">
                <rect x="2943.82" y="1621.14" width="25.148" height="25.148"/>
            </g>
            <g transform="matrix(2.38584,0,0,2.38584,-4463.5,-297.782)">
                <rect x="2943.82" y="1621.14" width="25.148" height="25.148"/>
            </g>
            <g transform="matrix(2.38584,0,0,2.38584,-4523.5,-237.782)">
                <rect x="2943.82" y="1621.14" width="25.148" height="25.148"/>
            </g>
            <g transform="matrix(2.38584,0,0,2.38584,-4403.5,-237.782)">
                <rect x="2943.82" y="1621.14" width="25.148" height="25.148"/>
            </g>
            <g transform="matrix(2.38584,0,0,2.38584,-4343.5,-297.782)">
                <rect x="2943.82" y="1621.14" width="25.148" height="25.148"/>
            </g>
            <g transform="matrix(2.38584,0,0,2.38584,-4223.5,-297.782)">
                <rect x="2943.82" y="1621.14" width="25.148" height="25.148"/>
            </g>
            <g transform="matrix(2.38584,0,0,2.38584,-4103.5,-297.782)">
                <rect x="2943.82" y="1621.14" width="25.148" height="25.148"/>
            </g>
            <g transform="matrix(2.38584,0,0,2.38584,-4283.5,-237.782)">
                <rect x="2943.82" y="1621.14" width="25.148" height="25.148"/>
            </g>
            <g transform="matrix(2.38584,0,0,2.38584,-4163.5,-237.782)">
                <rect x="2943.82" y="1621.14" width="25.148" height="25.148"/>
            </g>
            <g transform="matrix(2.38584,0,0,2.38584,-4463.5,-657.782)">
                <rect x="2943.82" y="1621.14" width="25.148" height="25.148"/>
            </g>
            <g transform="matrix(2.38584,0,0,2.38584,-4343.5,-657.782)">
                <rect x="2943.82" y="1621.14" width="25.148" height="25.148"/>
            </g>
            <g transform="matrix(2.38584,0,0,2.38584,-4223.5,-657.782)">
                <rect x="2943.82" y="1621.14" width="25.148" height="25.148"/>
            </g>
            <g transform="matrix(2.38584,0,0,2.38584,-4103.5,-657.782)">
                <rect x="2943.82" y="1621.14" width="25.148" height="25.148"/>
            </g>
            <g transform="matrix(0.815926,0,0,0.787966,-564.423,2290.49)">
                <ellipse cx="3792.53" cy="1738.03" rx="22.704" ry="23.51" style="fill:rgb(107,203,73);"/>
            </g>
            <g transform="matrix(0.815926,0,0,0.787966,-384.423,2110.49)">
                <ellipse cx="3792.53" cy="1738.03" rx="22.704" ry="23.51" style="fill:rgb(107,203,73);"/>
            </g>
            <g transform="matrix(0.815926,0,0,0.787966,-444.423,2230.49)">
                <ellipse cx="3792.53" cy="1738.03" rx="22.704" ry="23.51" style="fill:rgb(253,115,55);"/>
            </g>
            <g transform="matrix(0.815926,0,0,0.787966,-444.423,1870.49)">
                <ellipse cx="3792.53" cy="1738.03" rx="22.704" ry="23.51" style="fill:rgb(253,115,55);"/>
            </g>
        </g>
    </g>
    <defs>
        <linearGradient id="_Linear1" x1="0" y1="0" x2="1" y2="0" gradientUnits="userSpaceOnUse" gradientTransform="matrix(133.642,0,0,133.642,2899.3,1655.6)"><stop offset="0%" style="stop-color:white;stop-opacity:1"/><stop offset="100%" style="stop-color:white;stop-opacity:1"/></linearGradient>
    </defs>
</svg>
