<?xml version="1.0" encoding="UTF-8" standalone="no"?>
<!DOCTYPE svg PUBLIC "-//W3C//DTD SVG 1.1//EN" "http://www.w3.org/Graphics/SVG/1.1/DTD/svg11.dtd">
<svg width="100%" height="100%" viewBox="0 0 480 546" version="1.1" xmlns="http://www.w3.org/2000/svg" xmlns:xlink="http://www.w3.org/1999/xlink" xml:space="preserve" style="fill-rule:evenodd;clip-rule:evenodd;stroke-linejoin:round;">
    <g transform="matrix(1,0,0,1,-2500,-3144)">
        <g id="whichpromotion">
            <g id="colorboardmask3">
                <g transform="matrix(3.59167,0,0,3.59167,-7913.34,-2496.37)">
                    <rect x="2899.3" y="1588.78" width="133.642" height="133.642" style="fill:url(#_Linear1);"/>
                </g>
                <g transform="matrix(2.38584,0,0,2.38584,-4523.5,-597.782)">
                    <rect x="2943.82" y="1621.14" width="25.148" height="25.148"/>
                </g>
                <g transform="matrix(2.38584,0,0,2.38584,-4463.5,-537.782)">
                    <rect x="2943.82" y="1621.14" width="25.148" height="25.148"/>
                </g>
                <g transform="matrix(2.38584,0,0,2.38584,-4403.5,-597.782)">
                    <rect x="2943.82" y="1621.14" width="25.148" height="25.148"/>
                </g>
                <g transform="matrix(2.38584,0,0,2.38584,-4523.5,-477.782)">
                    <rect x="2943.82" y="1621.14" width="25.148" height="25.148"/>
                </g>
                <g transform="matrix(2.38584,0,0,2.38584,-4403.5,-477.782)">
                    <rect x="2943.82" y="1621.14" width="25.148" height="25.148"/>
                </g>
                <g transform="matrix(2.38584,0,0,2.38584,-4343.5,-537.782)">
                    <rect x="2943.82" y="1621.14" width="25.148" height="25.148"/>
                </g>
                <g transform="matrix(2.38584,0,0,2.38584,-4283.5,-597.782)">
                    <rect x="2943.82" y="1621.14" width="25.148" height="25.148"/>
                </g>
                <g transform="matrix(2.38584,0,0,2.38584,-4223.5,-537.782)">
                    <rect x="2943.82" y="1621.14" width="25.148" height="25.148"/>
                </g>
                <g transform="matrix(2.38584,0,0,2.38584,-4163.5,-597.782)">
                    <rect x="2943.82" y="1621.14" width="25.148" height="25.148"/>
                </g>
                <g transform="matrix(2.38584,0,0,2.38584,-4103.5,-537.782)">
                    <rect x="2943.82" y="1621.14" width="25.148" height="25.148"/>
                </g>
                <g transform="matrix(2.38584,0,0,2.38584,-4283.5,-477.782)">
                    <rect x="2943.82" y="1621.14" width="25.148" height="25.148"/>
                </g>
                <g transform="matrix(2.38584,0,0,2.38584,-4163.5,-477.782)">
                    <rect x="2943.82" y="1621.14" width="25.148" height="25.148"/>
                </g>
                <g transform="matrix(2.38584,0,0,2.38584,-4463.5,-417.782)">
                    <rect x="2943.82" y="1621.14" width="25.148" height="25.148"/>
                </g>
                <g transform="matrix(2.38584,0,0,2.38584,-4523.5,-357.782)">
                    <rect x="2943.82" y="1621.14" width="25.148" height="25.148"/>
                </g>
                <g transform="matrix(2.38584,0,0,2.38584,-4403.5,-357.782)">
                    <rect x="2943.82" y="1621.14" width="25.148" height="25.148"/>
                </g>
                <g transform="matrix(2.38584,0,0,2.38584,-4343.5,-417.782)">
                    <rect x="2943.82" y="1621.14" width="25.148" height="25.148"/>
                </g>
                <g transform="matrix(2.38584,0,0,2.38584,-4223.5,-417.782)">
                    <rect x="2943.82" y="1621.14" width="25.148" height="25.148"/>
                </g>
                <g transform="matrix(2.38584,0,0,2.38584,-4103.5,-417.782)">
                    <rect x="2943.82" y="1621.14" width="25.148" height="25.148"/>
                </g>
                <g transform="matrix(2.38584,0,0,2.38584,-4283.5,-357.782)">
                    <rect x="2943.82" y="1621.14" width="25.148" height="25.148"/>
                </g>
                <g transform="matrix(2.38584,0,0,2.38584,-4163.5,-357.782)">
                    <rect x="2943.82" y="1621.14" width="25.148" height="25.148"/>
                </g>
                <g transform="matrix(2.38584,0,0,2.38584,-4463.5,-297.782)">
                    <rect x="2943.82" y="1621.14" width="25.148" height="25.148"/>
                </g>
                <g transform="matrix(2.38584,0,0,2.38584,-4523.5,-237.782)">
                    <rect x="2943.82" y="1621.14" width="25.148" height="25.148"/>
                </g>
                <g transform="matrix(2.38584,0,0,2.38584,-4403.5,-237.782)">
                    <rect x="2943.82" y="1621.14" width="25.148" height="25.148"/>
                </g>
                <g transform="matrix(2.38584,0,0,2.38584,-4343.5,-297.782)">
                    <rect x="2943.82" y="1621.14" width="25.148" height="25.148"/>
                </g>
                <g transform="matrix(2.38584,0,0,2.38584,-4223.5,-297.782)">
                    <rect x="2943.82" y="1621.14" width="25.148" height="25.148"/>
                </g>
                <g transform="matrix(2.38584,0,0,2.38584,-4103.5,-297.782)">
                    <rect x="2943.82" y="1621.14" width="25.148" height="25.148"/>
                </g>
                <g transform="matrix(2.38584,0,0,2.38584,-4283.5,-237.782)">
                    <rect x="2943.82" y="1621.14" width="25.148" height="25.148"/>
                </g>
                <g transform="matrix(2.38584,0,0,2.38584,-4163.5,-237.782)">
                    <rect x="2943.82" y="1621.14" width="25.148" height="25.148"/>
                </g>
                <g transform="matrix(2.38584,0,0,2.38584,-4463.5,-657.782)">
                    <rect x="2943.82" y="1621.14" width="25.148" height="25.148"/>
                </g>
                <g transform="matrix(2.38584,0,0,2.38584,-4343.5,-657.782)">
                    <rect x="2943.82" y="1621.14" width="25.148" height="25.148"/>
                </g>
                <g transform="matrix(2.38584,0,0,2.38584,-4223.5,-657.782)">
                    <rect x="2943.82" y="1621.14" width="25.148" height="25.148"/>
                </g>
                <g transform="matrix(2.38584,0,0,2.38584,-4103.5,-657.782)">
                    <rect x="2943.82" y="1621.14" width="25.148" height="25.148"/>
                </g>
                <g transform="matrix(0.815926,0,0,0.787966,-564.423,2290.49)">
                    <ellipse cx="3792.53" cy="1738.03" rx="22.704" ry="23.51" style="fill:rgb(107,203,73);"/>
                </g>
                <g transform="matrix(0.815926,0,0,0.787966,-384.423,2110.49)">
                    <ellipse cx="3792.53" cy="1738.03" rx="22.704" ry="23.51" style="fill:rgb(107,203,73);"/>
                </g>
                <g transform="matrix(0.815926,0,0,0.787966,-444.423,2230.49)">
                    <ellipse cx="3792.53" cy="1738.03" rx="22.704" ry="23.51" style="fill:rgb(253,115,55);"/>
                </g>
                <g transform="matrix(0.815926,0,0,0.787966,-444.423,1870.49)">
                    <ellipse cx="3792.53" cy="1738.03" rx="22.704" ry="23.51" style="fill:rgb(253,115,55);"/>
                </g>
            </g>
            <g transform="matrix(1,0,0,1,-5.35695,-9.18658)">
                <text x="2633.18px" y="3200.46px" style="font-family:'HelveticaNeue', 'Helvetica Neue';font-size:48px;">or</text>
            </g>
            <g transform="matrix(1,0,0,1,1.13687e-13,-1.44949)">
                <text x="2746.34px" y="3192.72px" style="font-family:'HelveticaNeue', 'Helvetica Neue';font-size:48px;">?</text>
            </g>
            <g transform="matrix(0.75,0,0,0.75,2597.08,3175)">
                <g transform="matrix(1,0,0,1,-40,-40)">
                    <g transform="matrix(2,0,0,2,-5,-6)">
                        <g>
                            <rect x="9" y="36" width="27" height="3" style="fill:rgb(253,115,55);stroke:rgb(253,115,55);stroke-width:1.5px;"/>
                            <path d="M12.5,32L14,29.5L31,29.5L32.5,32L12.5,32Z" style="fill:rgb(253,115,55);stroke:rgb(253,115,55);stroke-width:1.5px;"/>
                            <rect x="12" y="32" width="21" height="4" style="fill:rgb(253,115,55);stroke:rgb(253,115,55);stroke-width:1.5px;"/>
                            <rect x="14" y="16.5" width="17" height="13" style="fill:rgb(253,115,55);stroke:rgb(253,115,55);stroke-width:1.5px;stroke-linejoin:miter;"/>
                            <path d="M14,16.5L11,14L34,14L31,16.5L14,16.5Z" style="fill:rgb(253,115,55);stroke:rgb(253,115,55);stroke-width:1.5px;"/>
                            <path d="M11,14L11,9L15,9L15,11L20,11L20,9L25,9L25,11L30,11L30,9L34,9L34,14L11,14Z" style="fill:rgb(253,115,55);stroke:rgb(253,115,55);stroke-width:1.5px;"/>
                        </g>
                        <path d="M12,35.5L33,35.5" style="fill:none;stroke:white;stroke-width:1px;stroke-linecap:round;stroke-linejoin:miter;"/>
                        <path d="M13,31.5L32,31.5" style="fill:none;stroke:white;stroke-width:1px;stroke-linecap:round;stroke-linejoin:miter;"/>
                        <path d="M14,29.5L31,29.5" style="fill:none;stroke:white;stroke-width:1px;stroke-linecap:round;stroke-linejoin:miter;"/>
                        <path d="M14,16.5L31,16.5" style="fill:none;stroke:white;stroke-width:1px;stroke-linecap:round;stroke-linejoin:miter;"/>
                        <path d="M11,14L34,14" style="fill:none;stroke:white;stroke-width:1px;stroke-linecap:round;stroke-linejoin:miter;"/>
                    </g>
                </g>
            </g>
            <g transform="matrix(0.75,0,0,0.75,2710,3175)">
                <g transform="matrix(1,0,0,1,-40,-40)">
                    <g transform="matrix(2,0,0,2,-5,-6)">
                        <g>
                            <circle cx="6" cy="12" r="2.75" style="fill:rgb(253,115,55);"/>
                            <circle cx="14" cy="9" r="2.75" style="fill:rgb(253,115,55);"/>
                            <circle cx="22.5" cy="8" r="2.75" style="fill:rgb(253,115,55);"/>
                            <circle cx="31" cy="9" r="2.75" style="fill:rgb(253,115,55);"/>
                            <circle cx="39" cy="12" r="2.75" style="fill:rgb(253,115,55);"/>
                        </g>
                        <path d="M9,26C17.5,24.5 30,24.5 36,26L38.5,13.5L31,25L30.7,10.9L25.5,24.5L22.5,10L19.5,24.5L14.3,10.9L14,25L6.5,13.5L9,26Z" style="fill:rgb(253,115,55);stroke:rgb(253,115,55);stroke-width:1.5px;"/>
                        <path d="M9,26C9,28 10.5,28 11.5,30C12.5,31.5 12.5,31 12,33.5C10.5,34.5 10.5,36 10.5,36C9,37.5 11,38.5 11,38.5C17.5,39.5 27.5,39.5 34,38.5C34,38.5 35.5,37.5 34,36C34,36 34.5,34.5 33,33.5C32.5,31 32.5,31.5 33.5,30C34.5,28 36,28 36,26C27.5,24.5 17.5,24.5 9,26Z" style="fill:rgb(253,115,55);stroke:rgb(253,115,55);stroke-width:1.5px;"/>
                        <path d="M11,38.5C18.446,41.09 26.554,41.09 34,38.5" style="fill:none;stroke:rgb(253,115,55);stroke-width:1.5px;"/>
                        <path d="M11,29C18.446,26.41 26.554,26.41 34,29" style="fill:none;stroke:white;stroke-width:1.5px;stroke-linecap:round;"/>
                        <path d="M12.5,31.5L32.5,31.5" style="fill:none;stroke:white;stroke-width:1.5px;stroke-linecap:round;"/>
                        <path d="M11.5,34.5C18.642,36.864 26.358,36.864 33.5,34.5" style="fill:none;stroke:white;stroke-width:1.5px;stroke-linecap:round;"/>
                        <path d="M10.5,37.5C18.248,40.328 26.752,40.328 34.5,37.5" style="fill:none;stroke:white;stroke-width:1.5px;stroke-linecap:round;"/>
                    </g>
                </g>
            </g>
        </g>
    </g>
    <defs>
        <linearGradient id="_Linear1" x1="0" y1="0" x2="1" y2="0" gradientUnits="userSpaceOnUse" gradientTransform="matrix(133.642,0,0,133.642,2899.3,1655.6)"><stop offset="0%" style="stop-color:white;stop-opacity:1"/><stop offset="100%" style="stop-color:white;stop-opacity:1"/></linearGradient>
    </defs>
</svg>
